<svg width="41" height="40" viewBox="0 0 41 40" fill="none" xmlns="http://www.w3.org/2000/svg">
<path d="M7.10798 11.6395C6.77377 11.4487 6.50507 11.1872 6.30187 10.8523C6.09867 10.5188 5.99707 10.1492 5.99707 9.74364C5.99707 9.36206 6.09199 9.0045 6.28449 8.67096C6.47566 8.33741 6.73768 8.06924 7.07322 7.86645C7.40743 7.66365 7.77774 7.56226 8.18414 7.56226C8.56647 7.56226 8.92475 7.66365 9.25896 7.86645C9.59317 8.06924 9.86187 8.33741 10.0651 8.67096C10.2683 9.0045 10.3699 9.3634 10.3699 9.74364C10.3699 10.34 10.1546 10.8523 9.72418 11.2819C9.29372 11.7116 8.78037 11.9264 8.1828 11.9264C7.80046 11.9264 7.44219 11.8316 7.10798 11.6395ZM9.9755 32.7409H6.39144V14.2865H9.9755V32.7409Z" fill="#66CC00"/>
<path d="M25.9206 19.6151L34.9509 32.7407H30.5073L27.1745 27.8416C25.6933 25.7203 24.5102 23.9792 23.6266 22.6197C22.7429 23.9792 21.5598 25.719 20.0786 27.8416L16.6737 32.7407H12.373L21.4756 19.7232L12.8757 7.27661H17.3194L20.4008 11.7835L23.6974 16.7546L27.0662 11.7474L30.1838 7.27661H34.4483L25.9192 19.6151H25.9206Z" fill="#66CC00"/>
<path d="M36.9138 40.0173H3.73611C1.82844 40.0173 0.276367 38.4684 0.276367 36.5645V3.45285C0.276367 1.54898 1.82844 0 3.73611 0H36.9138C38.8215 0 40.3735 1.54898 40.3735 3.45285V36.5645C40.3735 38.4684 38.8215 40.0173 36.9138 40.0173ZM3.73611 1.85851C2.85513 1.85851 2.13859 2.57363 2.13859 3.45285V36.5645C2.13859 37.4437 2.85513 38.1588 3.73611 38.1588H36.9138C37.7948 38.1588 38.5113 37.4437 38.5113 36.5645V3.45285C38.5113 2.57363 37.7948 1.85851 36.9138 1.85851H3.73611Z" fill="#BFE797"/>
</svg>
